<?xml version="1.0" encoding="utf-8"?>
<!-- Generator: Adobe Illustrator 16.0.4, SVG Export Plug-In . SVG Version: 6.00 Build 0)  -->
<!DOCTYPE svg PUBLIC "-//W3C//DTD SVG 1.1//EN" "http://www.w3.org/Graphics/SVG/1.1/DTD/svg11.dtd">
<svg version="1.1" id="Layer_1" xmlns="http://www.w3.org/2000/svg" xmlns:xlink="http://www.w3.org/1999/xlink" x="0px" y="0px"
	 width="88px" height="125px" viewBox="0 0 88 125" enable-background="new 0 0 88 125" xml:space="preserve">
<g>
	<g>
		<path d="M14.61-73.682c-3.428,2.291-4.389,6.248-8.491,8.495c-1.516,0.455-3.033,0.911-4.549,1.366h-4.246
			c-1.226,0.428-2.055,1.836-2.123,3.489c1.272,3.19,6.319,3.052,10.008,1.972c4.902-1.436,14.583-7.725,12.889-14.26
			C17.09-73.393,16.586-73.731,14.61-73.682z M-2.828-68.979c1.567,0.766,1.813-1.152,3.64-0.455
			c0.521,0.198,0.324,1.026,1.516,0.758c1.13-0.254,0.817-1.244,1.517-1.82c0.832-0.686,1.562,0.079,2.275-0.456
			c0.101-0.101,0.202-0.202,0.303-0.303c0.252-0.252,0.505-0.505,0.758-0.759c-0.171-0.636-0.233-0.702-0.152-1.365
			c0.838-0.891,1.598-1.153,2.124-2.427c-0.208-0.948-1.168-1.331-0.758-2.731c0.194-0.662,0.76-0.526,0.606-1.365
			c-0.257-1.503-1.2-1.025-1.819-1.973c-0.878-1.342,0.191-2.045-1.365-3.185c-0.404,0.101-0.809,0.202-1.213,0.303
			c-1.082-0.968-1.364-1.979-3.184-2.275c-0.405,0.304-0.809,0.607-1.213,0.911C-0.996-86.291-1-86.782-2.07-87.032
			c-1.089,0.718-1.566,1.581-2.578,2.275c-0.455-0.101-0.91-0.202-1.365-0.303c-0.404,0.404-0.809,0.809-1.213,1.213
			c0.322,2.696-1.585,2.028-1.971,4.551c1.245,1.298,0.375,2.059,0,3.49c1.01,1.506,2.353,1.885,1.971,3.944
			c0.405,0.405,0.809,0.809,1.213,1.214C-3.732-70.934-4.346-69.916-2.828-68.979z M-11.168-89.155
			c-0.556-0.506-1.112-1.012-1.667-1.518c-0.557-0.05-1.112-0.101-1.668-0.151c-6.309,4.134-6.83,16.325-2.729,23.058
			c0.954,1.566,1.42,2.862,3.791,3.035c1.118-0.426,1.836-0.869,2.274-1.973c0.918-3.44-2.154-5.985-2.729-9.253
			C-15.006-82.256-10.242-84.155-11.168-89.155z M-1.16-97.954c-0.758,0.202-1.517,0.404-2.274,0.607
			c-0.705,0.904-1.31,1.247-1.365,2.882c1.589,3.8,6.797,2.216,10.463,3.792c3.81,1.638,4.808,4.649,7.278,7.585
			c0.964,1.145,2.523,1.331,4.246,0.91c0.354-0.455,0.707-0.91,1.062-1.365C20.252-90.883,6.563-98.05-1.16-97.954z M0-115.278
			c-21.286,0-38.542,17.256-38.542,38.542S-14.931-20.833,0,0c14.931-22.222,38.542-55.451,38.542-76.736S21.286-115.278,0-115.278z
			 M24.315-71.71c0.657,0.607,1.314,1.214,1.971,1.82c-0.303,0.961-0.606,1.921-0.909,2.882c-2.807-0.188-4.596,0.448-4.55,3.489
			c0.405,0.657,0.81,1.314,1.213,1.972c-0.392,1.09-1.265,1.792-1.971,2.579c-1.357-0.425-2.234-0.869-3.943-0.455
			c-0.505,0.708-1.011,1.416-1.516,2.124c-0.525,2.186,1.664,3.463-2.426,3.945c-0.707-0.993-1.561-1.578-3.185-1.669
			c-2.103,1.26-1.84,1.726-2.88,4.096c-1.112,0.162-2.011,0.615-3.185,0.303c-0.182-1.718-1.422-2.74-3.336-2.73
			c-1.534,0.581-2.301,1.189-2.729,2.882c-0.96-0.152-1.921-0.303-2.881-0.455c-0.468-1.444-0.379-2.925-1.971-3.641
			c-2.381-0.731-3.182,1.323-4.549,1.214c-0.985-0.202-1.898-0.837-2.426-1.517c0.512-2.175,0.257-3.931-1.668-4.551
			c-1.53-0.637-2.565,0.522-3.639,0.455c-0.557-0.708-1.112-1.416-1.668-2.124c0.432-1.405,1.308-2.039,0.909-4.096
			c-1.897-2.588-4.732-0.43-5.307-4.551c1.098-0.883,1.705-1.414,2.274-2.882c-0.167-2.318-1.37-3.111-3.487-3.489
			c0.05-1.112,0.101-2.225,0.152-3.337c2.271-0.075,3.283-1.329,3.185-3.793c-0.525-1.158-1.08-1.655-2.124-2.275
			c0.006-1.206,0.429-2.576,1.213-3.035c1.602-0.373,5.129-0.142,4.246-3.641c-0.404-0.758-0.809-1.517-1.213-2.275
			c0.657-0.708,1.314-1.416,1.971-2.124c4.174,1.173,5.549,0.513,5.004-4.4c0.809-0.455,1.618-0.91,2.426-1.365
			c1.583,0.534,1.556,1.634,3.942,1.668c2.52-1.273,1.969-3.723,2.578-4.096c0.758-0.152,1.516-0.304,2.274-0.456
			c1.385,0.498,1.454,2.105,2.881,2.731c2.963,0.848,3.159-1.599,4.549-2.731c0.859,0.202,1.718,0.405,2.578,0.607
			c0.016,2.327,1.501,4.798,4.094,3.792c0.556-0.505,1.112-1.011,1.668-1.517c1.077-0.405,2.413,1.032,3.033,1.365
			c-0.187,1.122-0.635,1.953-0.151,3.034c0.991,2.61,3.091,1.623,5.307,1.214c0.607,0.759,1.213,1.517,1.819,2.275
			c-0.696,1.938-2.134,4.237,0.607,5.461c0.9,0.395,2.338-0.088,2.881,0.607c1.97,3.25-1.748,3.028-1.062,6.979
			c0.821,1.144,2.133,1.15,3.033,2.123c0.372,0.807,0.157,2.576-0.152,3.186C25.16-76.113,23.205-74.103,24.315-71.71z"/>
	</g>
</g>
</svg>
