<?xml version="1.0" encoding="utf-8"?>
<!-- Generator: Adobe Illustrator 16.0.4, SVG Export Plug-In . SVG Version: 6.00 Build 0)  -->
<!DOCTYPE svg PUBLIC "-//W3C//DTD SVG 1.1//EN" "http://www.w3.org/Graphics/SVG/1.1/DTD/svg11.dtd">
<svg version="1.1" id="Layer_1" xmlns="http://www.w3.org/2000/svg" xmlns:xlink="http://www.w3.org/1999/xlink" x="0px" y="0px"
	 width="88px" height="125px" viewBox="0 0 88 125" enable-background="new 0 0 88 125" xml:space="preserve">
<g>
	<g>
		<path d="M-8.613-89.109c-0.481,1.052-2.282,3.789-1.758,4.826c0.428,1.025,1.726,2.453,2.812,2.739
			c1.289-5.216,2.579-10.434,3.867-15.65c0.341-1.215,1.889-4.66,1.406-5.869C-4.858-98.853-6.491-93.754-8.613-89.109z M0-115.278
			c-21.286,0-38.542,17.256-38.542,38.542S-14.931-20.833,0,0c14.931-22.222,38.542-55.451,38.542-76.736S21.286-115.278,0-115.278z
			 M2.871-67.59v-0.131c2.93-7.042,5.86-14.085,8.79-21.127C6.934-82.11,2.207-75.371-2.52-68.633
			c-1.797-0.304-3.594-0.609-5.39-0.913c-4.072-0.819-8.404-0.481-12.891-0.521c1.522-5.303,3.047-10.607,4.57-15.911
			c-4.499,3.899-6.859,17.396-13.36,18.258v-0.391c4.609-7.042,9.22-14.086,13.828-21.127h0.469c0.976,1,1.953,2,2.93,2.999h0.234
			c3.515-7.215,7.032-14.434,10.546-21.649h0.352c3.242,5.651,6.485,11.303,9.727,16.954C5.098-85.11,1.699-79.284-1.699-73.458
			c0.078-0.043,0.156-0.087,0.234-0.131c4.726-6.693,9.453-13.39,14.18-20.084c0.117,0.043,0.234,0.087,0.352,0.13
			c0.732,2.504,2.987,4.657,4.336,6.651c4.062,6.085,8.125,12.173,12.188,18.258C24.854-64.366,9.22-65.338,2.871-67.59z"/>
	</g>
</g>
</svg>
